<?xml version="1.0" encoding="utf-8"?>
<!-- Generator: Adobe Illustrator 18.0.0, SVG Export Plug-In . SVG Version: 6.00 Build 0)  -->
<!DOCTYPE svg PUBLIC "-//W3C//DTD SVG 1.1//EN" "http://www.w3.org/Graphics/SVG/1.1/DTD/svg11.dtd">
<svg version="1.1" id="Layer_1" xmlns="http://www.w3.org/2000/svg" xmlns:xlink="http://www.w3.org/1999/xlink" x="0px" y="0px" 
  viewBox="0 0 24 24" enable-background="new 0 0 24 24" xml:space="preserve">
<path id="magnifier-4-icon_3_" d="M23.2,20.1l-5-5c1-1.5,1.5-3.3,1.5-5.3c0-5.4-4.4-9.8-9.8-9.8C4.5,0,0.1,4.4,0.1,9.8
	s4.4,9.8,9.8,9.8c1.8,0,3.6-0.5,5-1.4l5,5C22.1,25.4,25.3,22.2,23.2,20.1z M3.1,9.8c0-3.7,3-6.8,6.8-6.8s6.8,3,6.8,6.8
	s-3,6.8-6.8,6.8S3.1,13.6,3.1,9.8z"/>
</svg>
